<?xml version="1.0" encoding="utf-8"?>
<!-- Generator: Adobe Illustrator 16.0.0, SVG Export Plug-In . SVG Version: 6.00 Build 0)  -->
<!DOCTYPE svg PUBLIC "-//W3C//DTD SVG 1.1//EN" "http://www.w3.org/Graphics/SVG/1.1/DTD/svg11.dtd">
<svg version="1.1" id="Layer_1" xmlns="http://www.w3.org/2000/svg" xmlns:xlink="http://www.w3.org/1999/xlink" x="0px" y="0px"
	 width="1200px" height="573.971px" viewBox="0 0 1200 573.971" enable-background="new 0 0 1200 573.971" xml:space="preserve">
<g>
	<linearGradient id="SVGID_1_" gradientUnits="userSpaceOnUse" x1="3.8809" y1="334.8496" x2="233.999" y2="334.8496">
		<stop  offset="0" style="stop-color:#0084C8"/>
		<stop  offset="1" style="stop-color:#46BFAB"/>
	</linearGradient>
	<path fill="url(#SVGID_1_)" d="M192.765,225.067h41.234v219.572h-41.234v-25.412c-20.613,17.26-46.499,30.202-73.824,30.202
		c-30.683,0-59.449-11.502-81.504-33.073c-21.57-22.055-33.556-50.82-33.556-81.504c0-30.682,11.985-59.447,33.556-81.502
		c22.055-21.57,50.821-33.08,81.504-33.08c27.325,0,53.211,12.949,73.824,30.207V225.067z M192.765,334.852
		c0-40.752-33.077-74.304-73.824-74.304c-40.752,0-73.833,33.552-73.833,74.304c0,40.75,33.081,74.307,73.833,74.307
		C159.688,409.159,192.765,375.602,192.765,334.852z"/>
	<linearGradient id="SVGID_2_" gradientUnits="userSpaceOnUse" x1="246.4512" y1="271.0894" x2="476.5684" y2="271.0894">
		<stop  offset="0" style="stop-color:#0084C8"/>
		<stop  offset="1" style="stop-color:#46BFAB"/>
	</linearGradient>
	<path fill="url(#SVGID_2_)" d="M435.342,92.75h41.227v351.889h-41.227v-25.412c-20.616,17.26-46.505,30.202-73.832,30.202
		c-30.683,0-59.449-11.502-81.502-33.073c-21.571-22.055-33.557-50.82-33.557-81.504c0-30.682,11.985-59.447,33.557-81.502
		c22.053-21.57,50.819-33.08,81.502-33.08c27.327,0,53.216,12.949,73.832,30.207V92.75z M435.342,334.852
		c0-40.752-33.081-74.304-73.832-74.304s-73.832,33.552-73.832,74.304c0,40.75,33.081,74.307,73.832,74.307
		S435.342,375.602,435.342,334.852z"/>
	<linearGradient id="SVGID_3_" gradientUnits="userSpaceOnUse" x1="503.8809" y1="271.0894" x2="733.9971" y2="271.0894">
		<stop  offset="0" style="stop-color:#0084C8"/>
		<stop  offset="1" style="stop-color:#46BFAB"/>
	</linearGradient>
	<path fill="url(#SVGID_3_)" d="M733.997,334.852c0,30.684-11.984,59.449-34.038,81.504c-21.571,21.57-50.337,33.073-81.021,33.073
		c-27.325,0-53.21-12.942-73.823-30.202v25.412h-41.233V92.75h41.233v157.727c20.613-17.258,46.498-30.207,73.823-30.207
		c30.685,0,59.45,11.51,81.021,33.08C722.013,275.405,733.997,304.17,733.997,334.852z M692.771,334.852
		c0-40.752-33.08-74.304-73.834-74.304c-40.745,0-73.823,33.552-73.823,74.304c0,40.75,33.078,74.307,73.823,74.307
		C659.691,409.159,692.771,375.602,692.771,334.852z"/>
	<linearGradient id="SVGID_4_" gradientUnits="userSpaceOnUse" x1="758.4385" y1="334.853" x2="799.6699" y2="334.853">
		<stop  offset="0" style="stop-color:#0084C8"/>
		<stop  offset="1" style="stop-color:#46BFAB"/>
	</linearGradient>
	<path fill="url(#SVGID_4_)" d="M758.438,225.067h41.231v219.572h-41.231V225.067z"/>
	<linearGradient id="SVGID_5_" gradientUnits="userSpaceOnUse" x1="834.1699" y1="268.6943" x2="988.0625" y2="268.6943">
		<stop  offset="0" style="stop-color:#0084C8"/>
		<stop  offset="1" style="stop-color:#46BFAB"/>
	</linearGradient>
	<path fill="url(#SVGID_5_)" d="M988.062,92.75l-10.543,39.312H940.6c-17.258,0-32.599,15.824-32.599,33.556v59.449h67.596v39.311
		h-67.596v180.261h-41.228V264.378H834.17v-39.311h32.604v-60.406c0-40.27,32.601-71.911,72.868-71.911H988.062z"/>
	<linearGradient id="SVGID_6_" gradientUnits="userSpaceOnUse" x1="973.6729" y1="397.6538" x2="1196.1191" y2="397.6538">
		<stop  offset="0" style="stop-color:#0084C8"/>
		<stop  offset="1" style="stop-color:#46BFAB"/>
	</linearGradient>
	<path fill="url(#SVGID_6_)" d="M1056.133,570.241h-44.582l51.296-125.602l-89.174-219.572h44.584l66.642,164.92l66.637-164.92
		h44.584L1056.133,570.241z"/>
	<g>
		<linearGradient id="SVGID_7_" gradientUnits="userSpaceOnUse" x1="756.3037" y1="108.0781" x2="803.2168" y2="108.0781">
			<stop  offset="0" style="stop-color:#0084C8"/>
			<stop  offset="1" style="stop-color:#46BFAB"/>
		</linearGradient>
		<path fill="url(#SVGID_7_)" d="M803.217,108.075c0,12.957-10.501,23.461-23.458,23.461c-12.953,0-23.455-10.504-23.455-23.461
			c0-12.953,10.502-23.455,23.455-23.455C792.716,84.62,803.217,95.122,803.217,108.075z"/>
		<linearGradient id="SVGID_8_" gradientUnits="userSpaceOnUse" x1="606.3203" y1="36.3555" x2="748.4805" y2="36.3555">
			<stop  offset="0" style="stop-color:#0084C8"/>
			<stop  offset="1" style="stop-color:#46BFAB"/>
		</linearGradient>
		<path fill="url(#SVGID_8_)" d="M748.48,68.981c0,0-71.678-89.92-126.409-58.645C567.341,41.614,666.385,65.073,748.48,68.981z"/>
		<linearGradient id="SVGID_9_" gradientUnits="userSpaceOnUse" x1="705.6309" y1="125.1543" x2="753.6924" y2="125.1543">
			<stop  offset="0" style="stop-color:#0084C8"/>
			<stop  offset="1" style="stop-color:#46BFAB"/>
		</linearGradient>
		<path fill="url(#SVGID_9_)" d="M725.023,83.967c0,0-2.606,44.307,28.669,81.453c0,0-32.579,9.113-44.957-29.977
			C696.351,96.35,725.023,83.967,725.023,83.967z"/>
		<linearGradient id="SVGID_10_" gradientUnits="userSpaceOnUse" x1="657.9248" y1="138.916" x2="708.5723" y2="138.916">
			<stop  offset="0" style="stop-color:#0084C8"/>
			<stop  offset="1" style="stop-color:#46BFAB"/>
		</linearGradient>
		<path fill="url(#SVGID_10_)" d="M681.303,92.692c0,0-5.331,48.949,27.27,91.824c0,0-36.602,8.309-48.16-35.693
			C648.857,104.827,681.303,92.692,681.303,92.692z"/>
		<linearGradient id="SVGID_11_" gradientUnits="userSpaceOnUse" x1="629.5605" y1="159.4644" x2="664.4775" y2="159.4644">
			<stop  offset="0" style="stop-color:#0084C8"/>
			<stop  offset="1" style="stop-color:#46BFAB"/>
		</linearGradient>
		<path fill="url(#SVGID_11_)" d="M643.395,129.793c0,0-1.666,31.987,21.083,58.635c0,0-23.469,6.74-32.589-21.411
			C622.768,138.87,643.395,129.793,643.395,129.793z"/>
	</g>
</g>
</svg>
